# xmcd
#
# Track frame offsets: 
#        150
#        21036
#        36846
#        58043
#        76062
#        91625
#        108953
#        125209
#        149376
#        170568
#        187319
#        204853
#        223691
#        246874
#
# Disc length: 3606 seconds
#
# Revision: 0
# Processed by: cddbd v1.5.2PL0 Copyright (c) Steve Scherf et al.
# Submitted via: ExactAudioCopy v1.0b1
#
DISCID=c30e140e
DTITLE=Various Artist - 柏菲精选Ⅱ
DYEAR=2005
DGENRE=
TTITLE0=伽菲珈而\\花儿为什么这样红
TTITLE1=姜苏、伽菲珈而\\地道战
TTITLE2=陈汝佳、伽菲珈而\\我愿变成一杯香茶
TTITLE3=陈妃平\\雪精灵
TTITLE4=李跃君\\灰姑娘
TTITLE5=刘锡明、陈妃平\\两忘烟水里
TTITLE6=古璇\\尼罗河畔的歌声
TTITLE7=窦鹏\\爱的箴言
TTITLE8=曲比阿乌\\情深谊长
TTITLE9=李烁\\小村之恋
TTITLE10=梁玉嵘\\上海滩
TTITLE11=姜苏\\渔家姑娘在海边
TTITLE12=德德玛\\父亲的草原母亲的河
TTITLE13=万山红\\红梅赞
EXTD=
EXTT0=
EXTT1=
EXTT2=
EXTT3=
EXTT4=
EXTT5=
EXTT6=
EXTT7=
EXTT8=
EXTT9=
EXTT10=
EXTT11=
EXTT12=
EXTT13=
PLAYORDER=
